solid OpenSCAD_Model
  facet normal -1 0 0
    outer loop
      vertex -12.5 -12.5 -6.25
      vertex -12.5 -12.5 6.25
      vertex -12.5 12.5 -6.25
    endloop
  endfacet
  facet normal -1 0 0
    outer loop
      vertex -12.5 12.5 -6.25
      vertex -12.5 -12.5 6.25
      vertex -12.5 12.5 6.25
    endloop
  endfacet
  facet normal 0 -1 0
    outer loop
      vertex -12.5 -12.5 6.25
      vertex -12.5 -12.5 -6.25
      vertex 12.5 -12.5 -6.25
    endloop
  endfacet
  facet normal 0 -1 0
    outer loop
      vertex 12.5 -12.5 6.25
      vertex -12.5 -12.5 6.25
      vertex 12.5 -12.5 -6.25
    endloop
  endfacet
  facet normal 0 0 -1
    outer loop
      vertex 8.30711 8.34 -6.25
      vertex -12.5 12.5 -6.25
      vertex 12.5 12.5 -6.25
    endloop
  endfacet
  facet normal 0 0 -1
    outer loop
      vertex -12.5 -12.5 -6.25
      vertex -12.5 12.5 -6.25
      vertex -8.34 8.30711 -6.25
    endloop
  endfacet
  facet normal 0 0 -1
    outer loop
      vertex -12.5 -12.5 -6.25
      vertex -8.34 8.30711 -6.25
      vertex -8.34 0.51 -6.25
    endloop
  endfacet
  facet normal 0 0 -1
    outer loop
      vertex -8.34 -8.30711 -6.25
      vertex -12.5 -12.5 -6.25
      vertex -8.34 -0.51 -6.25
    endloop
  endfacet
  facet normal 0 0 -1
    outer loop
      vertex -6.70711 -0.51 -6.25
      vertex -8.34 0.51 -6.25
      vertex -5.24 -0.51 -6.25
    endloop
  endfacet
  facet normal 0 0 -1
    outer loop
      vertex -6.70711 0.51 -6.25
      vertex -5.24 0.51 -6.25
      vertex -5.24 6.41715e-16 -6.25
    endloop
  endfacet
  facet normal 0 0 -1
    outer loop
      vertex -8.34 0.51 -6.25
      vertex -6.70711 0.51 -6.25
      vertex -5.24 -0.51 -6.25
    endloop
  endfacet
  facet normal 0 0 -1
    outer loop
      vertex -8.34 -0.51 -6.25
      vertex -8.34 0.51 -6.25
      vertex -6.70711 -0.51 -6.25
    endloop
  endfacet
  facet normal 0 0 -1
    outer loop
      vertex -12.5 -12.5 -6.25
      vertex -8.34 0.51 -6.25
      vertex -8.34 -0.51 -6.25
    endloop
  endfacet
  facet normal 0 0 -1
    outer loop
      vertex 0.51 -6.70711 -6.25
      vertex -1.16351e-15 -5.24 -6.25
      vertex 0.51 -5.24 -6.25
    endloop
  endfacet
  facet normal 0 0 -1
    outer loop
      vertex -8.30711 -8.34 -6.25
      vertex -8.34 -8.30711 -6.25
      vertex -8.30711 -8.30711 -6.25
    endloop
  endfacet
  facet normal 0 0 -1
    outer loop
      vertex -0.51 -8.34 -6.25
      vertex 12.5 -12.5 -6.25
      vertex -8.30711 -8.34 -6.25
    endloop
  endfacet
  facet normal 0 0 -1
    outer loop
      vertex -12.5 -12.5 -6.25
      vertex -8.34 -8.30711 -6.25
      vertex -8.30711 -8.34 -6.25
    endloop
  endfacet
  facet normal 0 0 -1
    outer loop
      vertex -12.5 -12.5 -6.25
      vertex -8.30711 -8.34 -6.25
      vertex 12.5 -12.5 -6.25
    endloop
  endfacet
  facet normal 0 0 -1
    outer loop
      vertex 0.51 -6.70711 -6.25
      vertex -0.51 -5.24 -6.25
      vertex -1.16351e-15 -5.24 -6.25
    endloop
  endfacet
  facet normal 0 0 -1
    outer loop
      vertex 8.30711 -8.34 -6.25
      vertex 12.5 -12.5 -6.25
      vertex 0.51 -8.34 -6.25
    endloop
  endfacet
  facet normal 0 0 -1
    outer loop
      vertex 0.51 -8.34 -6.25
      vertex -0.51 -6.70711 -6.25
      vertex 0.51 -6.70711 -6.25
    endloop
  endfacet
  facet normal 0 0 -1
    outer loop
      vertex -0.51 -6.70711 -6.25
      vertex -0.51 -5.24 -6.25
      vertex 0.51 -6.70711 -6.25
    endloop
  endfacet
  facet normal 0 0 -1
    outer loop
      vertex -0.51 -8.34 -6.25
      vertex -0.51 -6.70711 -6.25
      vertex 0.51 -8.34 -6.25
    endloop
  endfacet
  facet normal 0 0 -1
    outer loop
      vertex -0.51 -8.34 -6.25
      vertex 0.51 -8.34 -6.25
      vertex 12.5 -12.5 -6.25
    endloop
  endfacet
  facet normal 0 0 -1
    outer loop
      vertex 8.30711 -8.30711 -6.25
      vertex 12.5 -12.5 -6.25
      vertex 8.30711 -8.34 -6.25
    endloop
  endfacet
  facet normal 0 0 -1
    outer loop
      vertex -5.24 -0.51 -6.25
      vertex -6.70711 0.51 -6.25
      vertex -5.24 6.41715e-16 -6.25
    endloop
  endfacet
  facet normal 0 0 -1
    outer loop
      vertex 8.34 -8.30711 -6.25
      vertex 12.5 -12.5 -6.25
      vertex 8.30711 -8.30711 -6.25
    endloop
  endfacet
  facet normal 0 0 -1
    outer loop
      vertex 12.5 -12.5 -6.25
      vertex 8.34 -8.30711 -6.25
      vertex 12.5 12.5 -6.25
    endloop
  endfacet
  facet normal 0 0 -1
    outer loop
      vertex 8.34 -8.30711 -6.25
      vertex 8.34 -0.51 -6.25
      vertex 12.5 12.5 -6.25
    endloop
  endfacet
  facet normal 0 0 -1
    outer loop
      vertex -8.30711 8.30711 -6.25
      vertex -12.5 12.5 -6.25
      vertex -8.30711 8.34 -6.25
    endloop
  endfacet
  facet normal 0 0 -1
    outer loop
      vertex 5.24 -0.51 -6.25
      vertex 5.24 0 -6.25
      vertex 6.70711 -0.51 -6.25
    endloop
  endfacet
  facet normal 0 0 -1
    outer loop
      vertex 6.70711 0.51 -6.25
      vertex 8.34 -0.51 -6.25
      vertex 5.24 0.51 -6.25
    endloop
  endfacet
  facet normal 0 0 -1
    outer loop
      vertex 6.70711 -0.51 -6.25
      vertex 5.24 0.51 -6.25
      vertex 8.34 -0.51 -6.25
    endloop
  endfacet
  facet normal 0 0 -1
    outer loop
      vertex 8.34 8.30711 -6.25
      vertex 12.5 12.5 -6.25
      vertex 8.34 0.51 -6.25
    endloop
  endfacet
  facet normal 0 0 -1
    outer loop
      vertex -0.51 6.70711 -6.25
      vertex 1.16351e-15 5.24 -6.25
      vertex -0.51 5.24 -6.25
    endloop
  endfacet
  facet normal 0 0 -1
    outer loop
      vertex 8.34 -0.51 -6.25
      vertex 6.70711 0.51 -6.25
      vertex 8.34 0.51 -6.25
    endloop
  endfacet
  facet normal 0 0 -1
    outer loop
      vertex 8.34 -0.51 -6.25
      vertex 8.34 0.51 -6.25
      vertex 12.5 12.5 -6.25
    endloop
  endfacet
  facet normal 0 0 -1
    outer loop
      vertex 8.30711 8.34 -6.25
      vertex 8.34 8.30711 -6.25
      vertex 8.30711 8.30711 -6.25
    endloop
  endfacet
  facet normal 0 0 -1
    outer loop
      vertex -0.51 6.70711 -6.25
      vertex 0.51 5.24 -6.25
      vertex 1.16351e-15 5.24 -6.25
    endloop
  endfacet
  facet normal 0 0 -1
    outer loop
      vertex 0.51 8.34 -6.25
      vertex -12.5 12.5 -6.25
      vertex 8.30711 8.34 -6.25
    endloop
  endfacet
  facet normal 0 0 -1
    outer loop
      vertex 8.34 8.30711 -6.25
      vertex 8.30711 8.34 -6.25
      vertex 12.5 12.5 -6.25
    endloop
  endfacet
  facet normal 0 0 -1
    outer loop
      vertex -0.51 8.34 -6.25
      vertex -12.5 12.5 -6.25
      vertex 0.51 8.34 -6.25
    endloop
  endfacet
  facet normal 0 0 -1
    outer loop
      vertex -0.51 8.34 -6.25
      vertex 0.51 6.70711 -6.25
      vertex -0.51 6.70711 -6.25
    endloop
  endfacet
  facet normal 0 0 -1
    outer loop
      vertex 0.51 5.24 -6.25
      vertex -0.51 6.70711 -6.25
      vertex 0.51 6.70711 -6.25
    endloop
  endfacet
  facet normal 0 0 -1
    outer loop
      vertex -8.30711 8.34 -6.25
      vertex -12.5 12.5 -6.25
      vertex -0.51 8.34 -6.25
    endloop
  endfacet
  facet normal 0 0 -1
    outer loop
      vertex 0.51 6.70711 -6.25
      vertex -0.51 8.34 -6.25
      vertex 0.51 8.34 -6.25
    endloop
  endfacet
  facet normal 0 0 -1
    outer loop
      vertex 5.24 0.51 -6.25
      vertex 6.70711 -0.51 -6.25
      vertex 5.24 0 -6.25
    endloop
  endfacet
  facet normal 0 0 -1
    outer loop
      vertex -8.34 8.30711 -6.25
      vertex -12.5 12.5 -6.25
      vertex -8.30711 8.30711 -6.25
    endloop
  endfacet
  facet normal 0 1 0
    outer loop
      vertex -12.5 12.5 -6.25
      vertex -12.5 12.5 6.25
      vertex 12.5 12.5 -6.25
    endloop
  endfacet
  facet normal 0 1 0
    outer loop
      vertex 12.5 12.5 -6.25
      vertex -12.5 12.5 6.25
      vertex 12.5 12.5 6.25
    endloop
  endfacet
  facet normal 0 0 1
    outer loop
      vertex 0.51 -8.34 6.25
      vertex -12.5 -12.5 6.25
      vertex 12.5 -12.5 6.25
    endloop
  endfacet
  facet normal 0 0 1
    outer loop
      vertex -12.5 12.5 6.25
      vertex -12.5 -12.5 6.25
      vertex -8.34 0.51 6.25
    endloop
  endfacet
  facet normal 0 0 1
    outer loop
      vertex -5.24 6.41715e-16 6.25
      vertex -6.70711 0.51 6.25
      vertex -5.24 -0.51 6.25
    endloop
  endfacet
  facet normal 0 0 1
    outer loop
      vertex -12.5 12.5 6.25
      vertex -8.34 0.51 6.25
      vertex -8.34 8.30711 6.25
    endloop
  endfacet
  facet normal 0 0 1
    outer loop
      vertex 8.30711 -8.30711 6.25
      vertex 8.30711 -8.34 6.25
      vertex 12.5 -12.5 6.25
    endloop
  endfacet
  facet normal 0 0 1
    outer loop
      vertex -8.30711 8.34 6.25
      vertex -12.5 12.5 6.25
      vertex -8.30711 8.30711 6.25
    endloop
  endfacet
  facet normal 0 0 1
    outer loop
      vertex 1.16351e-15 5.24 6.25
      vertex 0.51 5.24 6.25
      vertex -0.51 6.70711 6.25
    endloop
  endfacet
  facet normal 0 0 1
    outer loop
      vertex 12.5 12.5 6.25
      vertex -12.5 12.5 6.25
      vertex -8.30711 8.34 6.25
    endloop
  endfacet
  facet normal 0 0 1
    outer loop
      vertex 8.34 -8.30711 6.25
      vertex 8.30711 -8.30711 6.25
      vertex 12.5 -12.5 6.25
    endloop
  endfacet
  facet normal 0 0 1
    outer loop
      vertex 0.51 5.24 6.25
      vertex 0.51 6.70711 6.25
      vertex -0.51 8.34 6.25
    endloop
  endfacet
  facet normal 0 0 1
    outer loop
      vertex -0.51 6.70711 6.25
      vertex -0.51 5.24 6.25
      vertex 1.16351e-15 5.24 6.25
    endloop
  endfacet
  facet normal 0 0 1
    outer loop
      vertex 0.51 8.34 6.25
      vertex 8.30711 8.34 6.25
      vertex 12.5 12.5 6.25
    endloop
  endfacet
  facet normal 0 0 1
    outer loop
      vertex -0.51 8.34 6.25
      vertex -0.51 6.70711 6.25
      vertex 0.51 5.24 6.25
    endloop
  endfacet
  facet normal 0 0 1
    outer loop
      vertex 8.30711 -8.34 6.25
      vertex 0.51 -8.34 6.25
      vertex 12.5 -12.5 6.25
    endloop
  endfacet
  facet normal 0 0 1
    outer loop
      vertex 0.51 8.34 6.25
      vertex -0.51 8.34 6.25
      vertex 0.51 6.70711 6.25
    endloop
  endfacet
  facet normal 0 0 1
    outer loop
      vertex 8.30711 8.30711 6.25
      vertex 8.34 8.30711 6.25
      vertex 8.30711 8.34 6.25
    endloop
  endfacet
  facet normal 0 0 1
    outer loop
      vertex 12.5 12.5 6.25
      vertex -0.51 8.34 6.25
      vertex 0.51 8.34 6.25
    endloop
  endfacet
  facet normal 0 0 1
    outer loop
      vertex 5.24 0 6.25
      vertex 6.70711 -0.51 6.25
      vertex 5.24 0.51 6.25
    endloop
  endfacet
  facet normal 0 0 1
    outer loop
      vertex 8.34 8.30711 6.25
      vertex 8.34 0.51 6.25
      vertex 12.5 -12.5 6.25
    endloop
  endfacet
  facet normal 0 0 1
    outer loop
      vertex 12.5 12.5 6.25
      vertex 8.34 8.30711 6.25
      vertex 12.5 -12.5 6.25
    endloop
  endfacet
  facet normal 0 0 1
    outer loop
      vertex 12.5 12.5 6.25
      vertex 8.30711 8.34 6.25
      vertex 8.34 8.30711 6.25
    endloop
  endfacet
  facet normal 0 0 1
    outer loop
      vertex 6.70711 -0.51 6.25
      vertex 8.34 -0.51 6.25
      vertex 6.70711 0.51 6.25
    endloop
  endfacet
  facet normal 0 0 1
    outer loop
      vertex 6.70711 0.51 6.25
      vertex 5.24 0.51 6.25
      vertex 6.70711 -0.51 6.25
    endloop
  endfacet
  facet normal 0 0 1
    outer loop
      vertex 8.34 0.51 6.25
      vertex 8.34 -0.51 6.25
      vertex 12.5 -12.5 6.25
    endloop
  endfacet
  facet normal 0 0 1
    outer loop
      vertex 8.34 0.51 6.25
      vertex 6.70711 0.51 6.25
      vertex 8.34 -0.51 6.25
    endloop
  endfacet
  facet normal 0 0 1
    outer loop
      vertex -8.30711 8.34 6.25
      vertex -0.51 8.34 6.25
      vertex 12.5 12.5 6.25
    endloop
  endfacet
  facet normal 0 0 1
    outer loop
      vertex 5.24 -0.51 6.25
      vertex 6.70711 -0.51 6.25
      vertex 5.24 0 6.25
    endloop
  endfacet
  facet normal 0 0 1
    outer loop
      vertex -0.51 -8.34 6.25
      vertex -12.5 -12.5 6.25
      vertex 0.51 -8.34 6.25
    endloop
  endfacet
  facet normal 0 0 1
    outer loop
      vertex -0.51 -5.24 6.25
      vertex -0.51 -6.70711 6.25
      vertex 0.51 -6.70711 6.25
    endloop
  endfacet
  facet normal 0 0 1
    outer loop
      vertex -0.51 -6.70711 6.25
      vertex 0.51 -8.34 6.25
      vertex 0.51 -6.70711 6.25
    endloop
  endfacet
  facet normal 0 0 1
    outer loop
      vertex -1.16351e-15 -5.24 6.25
      vertex 0.51 -6.70711 6.25
      vertex 0.51 -5.24 6.25
    endloop
  endfacet
  facet normal 0 0 1
    outer loop
      vertex -6.70711 -0.51 6.25
      vertex -5.24 -0.51 6.25
      vertex -8.34 0.51 6.25
    endloop
  endfacet
  facet normal 0 0 1
    outer loop
      vertex -0.51 -5.24 6.25
      vertex 0.51 -6.70711 6.25
      vertex -1.16351e-15 -5.24 6.25
    endloop
  endfacet
  facet normal 0 0 1
    outer loop
      vertex -5.24 0.51 6.25
      vertex -6.70711 0.51 6.25
      vertex -5.24 6.41715e-16 6.25
    endloop
  endfacet
  facet normal 0 0 1
    outer loop
      vertex -0.51 -6.70711 6.25
      vertex -0.51 -8.34 6.25
      vertex 0.51 -8.34 6.25
    endloop
  endfacet
  facet normal 0 0 1
    outer loop
      vertex -8.30711 -8.30711 6.25
      vertex -8.34 -8.30711 6.25
      vertex -8.30711 -8.34 6.25
    endloop
  endfacet
  facet normal 0 0 1
    outer loop
      vertex -8.30711 -8.34 6.25
      vertex -12.5 -12.5 6.25
      vertex -0.51 -8.34 6.25
    endloop
  endfacet
  facet normal 0 0 1
    outer loop
      vertex -8.34 -8.30711 6.25
      vertex -12.5 -12.5 6.25
      vertex -8.30711 -8.34 6.25
    endloop
  endfacet
  facet normal 0 0 1
    outer loop
      vertex -8.34 -0.51 6.25
      vertex -12.5 -12.5 6.25
      vertex -8.34 -8.30711 6.25
    endloop
  endfacet
  facet normal 0 0 1
    outer loop
      vertex -8.34 0.51 6.25
      vertex -12.5 -12.5 6.25
      vertex -8.34 -0.51 6.25
    endloop
  endfacet
  facet normal 0 0 1
    outer loop
      vertex -6.70711 0.51 6.25
      vertex -8.34 0.51 6.25
      vertex -5.24 -0.51 6.25
    endloop
  endfacet
  facet normal 0 0 1
    outer loop
      vertex -8.34 8.30711 6.25
      vertex -8.30711 8.30711 6.25
      vertex -12.5 12.5 6.25
    endloop
  endfacet
  facet normal 0 0 1
    outer loop
      vertex 8.34 -0.51 6.25
      vertex 8.34 -8.30711 6.25
      vertex 12.5 -12.5 6.25
    endloop
  endfacet
  facet normal 0 0 1
    outer loop
      vertex -8.34 -0.51 6.25
      vertex -6.70711 -0.51 6.25
      vertex -8.34 0.51 6.25
    endloop
  endfacet
  facet normal 1 0 0
    outer loop
      vertex 12.5 -12.5 6.25
      vertex 12.5 -12.5 -6.25
      vertex 12.5 12.5 -6.25
    endloop
  endfacet
  facet normal 1 0 0
    outer loop
      vertex 12.5 12.5 6.25
      vertex 12.5 -12.5 6.25
      vertex 12.5 12.5 -6.25
    endloop
  endfacet
  facet normal 2.71926e-32 -1 -2.22045e-16
    outer loop
      vertex -8.34 8.30711 -6.25
      vertex -8.30711 8.30711 -6.25
      vertex -8.30711 8.30711 -6.23101
    endloop
  endfacet
  facet normal 2.71926e-32 -1 -2.22045e-16
    outer loop
      vertex -7.59 8.30711 -6.23101
      vertex -7.59 8.30711 -5.81699
      vertex -8.30711 8.30711 -6.23101
    endloop
  endfacet
  facet normal 2.71926e-32 -1 -2.22045e-16
    outer loop
      vertex -7.59 8.30711 -5.81699
      vertex -8.34 8.30711 -6.25
      vertex -8.30711 8.30711 -6.23101
    endloop
  endfacet
  facet normal 1 -2.22045e-16 2.22045e-16
    outer loop
      vertex -8.30711 8.30711 -6.25
      vertex -8.30711 8.34 -6.25
      vertex -8.30711 8.30711 -6.23101
    endloop
  endfacet
  facet normal 8.12739e-17 -0.5 -0.866025
    outer loop
      vertex -8.30711 8.30711 -6.23101
      vertex -8.30711 8.34 -6.25
      vertex -7.59 8.30711 -6.23101
    endloop
  endfacet
  facet normal 8.12739e-17 -0.5 -0.866025
    outer loop
      vertex -0.51 8.34 -6.25
      vertex -1.25 7.6 -5.82276
      vertex -7.59 8.30711 -6.23101
    endloop
  endfacet
  facet normal 8.12739e-17 -0.5 -0.866025
    outer loop
      vertex -0.51 8.34 -6.25
      vertex -7.59 8.30711 -6.23101
      vertex -8.30711 8.34 -6.25
    endloop
  endfacet
  facet normal 8.12739e-17 -0.5 -0.866025
    outer loop
      vertex -7.59 8.30711 -6.23101
      vertex -1.25 7.6 -5.82276
      vertex -7.59 7.6 -5.82276
    endloop
  endfacet
  facet normal -0.5 2.97485e-17 -0.866025
    outer loop
      vertex -0.51 8.34 -6.25
      vertex -0.51 6.70711 -6.25
      vertex -1.25 7.6 -5.82276
    endloop
  endfacet
  facet normal -0.5 2.97485e-17 -0.866025
    outer loop
      vertex -1.25 7.6 -5.82276
      vertex -0.51 6.70711 -6.25
      vertex -0.51 5.24 -6.25
    endloop
  endfacet
  facet normal -0.5 2.97485e-17 -0.866025
    outer loop
      vertex -1.25 7.6 -5.82276
      vertex -0.51 5.24 -6.25
      vertex -1.25 4.5 -5.82276
    endloop
  endfacet
  facet normal 8.12739e-17 -0.5 -0.866025
    outer loop
      vertex -0.51 5.24 -6.25
      vertex 1.16351e-15 5.24 -6.25
      vertex 0.51 5.24 -6.25
    endloop
  endfacet
  facet normal 8.12739e-17 -0.5 -0.866025
    outer loop
      vertex -0.51 5.24 -6.25
      vertex 0.51 5.24 -6.25
      vertex 1.25 4.5 -5.82276
    endloop
  endfacet
  facet normal 8.12739e-17 -0.5 -0.866025
    outer loop
      vertex -0.51 5.24 -6.25
      vertex 1.25 4.5 -5.82276
      vertex -1.25 4.5 -5.82276
    endloop
  endfacet
  facet normal 0.5 -2.97485e-17 -0.866025
    outer loop
      vertex 0.51 8.34 -6.25
      vertex 1.25 7.6 -5.82276
      vertex 0.51 6.70711 -6.25
    endloop
  endfacet
  facet normal 0.5 -2.97485e-17 -0.866025
    outer loop
      vertex 0.51 6.70711 -6.25
      vertex 1.25 7.6 -5.82276
      vertex 1.25 4.5 -5.82276
    endloop
  endfacet
  facet normal 0.5 -2.97485e-17 -0.866025
    outer loop
      vertex 0.51 6.70711 -6.25
      vertex 1.25 4.5 -5.82276
      vertex 0.51 5.24 -6.25
    endloop
  endfacet
  facet normal -1 2.22045e-16 -2.22045e-16
    outer loop
      vertex 8.30711 8.34 -6.25
      vertex 8.30711 8.30711 -6.25
      vertex 8.30711 8.30711 -6.23101
    endloop
  endfacet
  facet normal -1 2.22045e-16 -2.22045e-16
    outer loop
      vertex 8.30711 8.30711 -6.23101
      vertex 8.30711 7.59 -6.23101
      vertex 8.30711 7.59 -5.81699
    endloop
  endfacet
  facet normal -1 2.22045e-16 -2.22045e-16
    outer loop
      vertex 8.30711 8.30711 -6.23101
      vertex 8.30711 7.59 -5.81699
      vertex 8.30711 8.34 -6.25
    endloop
  endfacet
  facet normal 0 -1 2.22045e-16
    outer loop
      vertex 8.30711 8.30711 -6.25
      vertex 8.34 8.30711 -6.25
      vertex 8.30711 8.30711 -6.23101
    endloop
  endfacet
  facet normal -0.5 -1.92296e-16 -0.866025
    outer loop
      vertex 8.30711 7.59 -6.23101
      vertex 8.30711 8.30711 -6.23101
      vertex 8.34 8.30711 -6.25
    endloop
  endfacet
  facet normal -0.5 -1.92296e-16 -0.866025
    outer loop
      vertex 8.30711 7.59 -6.23101
      vertex 8.34 8.30711 -6.25
      vertex 8.34 0.51 -6.25
    endloop
  endfacet
  facet normal -0.5 -1.92296e-16 -0.866025
    outer loop
      vertex 8.30711 7.59 -6.23101
      vertex 8.34 0.51 -6.25
      vertex 7.6 7.59 -5.82276
    endloop
  endfacet
  facet normal -0.5 -1.92296e-16 -0.866025
    outer loop
      vertex 8.34 0.51 -6.25
      vertex 7.6 1.25 -5.82276
      vertex 7.6 7.59 -5.82276
    endloop
  endfacet
  facet normal -8.12739e-17 0.5 -0.866025
    outer loop
      vertex 4.5 1.25 -5.82276
      vertex 7.6 1.25 -5.82276
      vertex 8.34 0.51 -6.25
    endloop
  endfacet
  facet normal -8.12739e-17 0.5 -0.866025
    outer loop
      vertex 4.5 1.25 -5.82276
      vertex 8.34 0.51 -6.25
      vertex 6.70711 0.51 -6.25
    endloop
  endfacet
  facet normal -8.12739e-17 0.5 -0.866025
    outer loop
      vertex 4.5 1.25 -5.82276
      vertex 6.70711 0.51 -6.25
      vertex 5.24 0.51 -6.25
    endloop
  endfacet
  facet normal -0.5 -1.92296e-16 -0.866025
    outer loop
      vertex 5.24 0.51 -6.25
      vertex 5.24 0 -6.25
      vertex 4.5 1.25 -5.82276
    endloop
  endfacet
  facet normal -0.5 -1.92296e-16 -0.866025
    outer loop
      vertex 5.24 0 -6.25
      vertex 5.24 -0.51 -6.25
      vertex 4.5 1.25 -5.82276
    endloop
  endfacet
  facet normal -0.5 -1.92296e-16 -0.866025
    outer loop
      vertex 5.24 -0.51 -6.25
      vertex 4.5 -1.25 -5.82276
      vertex 4.5 1.25 -5.82276
    endloop
  endfacet
  facet normal 8.12739e-17 -0.5 -0.866025
    outer loop
      vertex 5.24 -0.51 -6.25
      vertex 6.70711 -0.51 -6.25
      vertex 8.34 -0.51 -6.25
    endloop
  endfacet
  facet normal 8.12739e-17 -0.5 -0.866025
    outer loop
      vertex 5.24 -0.51 -6.25
      vertex 8.34 -0.51 -6.25
      vertex 7.6 -1.25 -5.82276
    endloop
  endfacet
  facet normal 8.12739e-17 -0.5 -0.866025
    outer loop
      vertex 5.24 -0.51 -6.25
      vertex 7.6 -1.25 -5.82276
      vertex 4.5 -1.25 -5.82276
    endloop
  endfacet
  facet normal 0 1 -2.22045e-16
    outer loop
      vertex 7.59 -8.30711 -6.23101
      vertex 7.59 -8.30711 -5.81699
      vertex 8.30711 -8.30711 -6.23101
    endloop
  endfacet
  facet normal 0 1 -2.22045e-16
    outer loop
      vertex 8.34 -8.30711 -6.25
      vertex 8.30711 -8.30711 -6.23101
      vertex 7.59 -8.30711 -5.81699
    endloop
  endfacet
  facet normal 0 1 -2.22045e-16
    outer loop
      vertex 8.30711 -8.30711 -6.23101
      vertex 8.34 -8.30711 -6.25
      vertex 8.30711 -8.30711 -6.25
    endloop
  endfacet
  facet normal -1 2.22045e-16 2.22045e-16
    outer loop
      vertex 8.30711 -8.30711 -6.23101
      vertex 8.30711 -8.30711 -6.25
      vertex 8.30711 -8.34 -6.25
    endloop
  endfacet
  facet normal -8.12739e-17 0.5 -0.866025
    outer loop
      vertex 1.25 -7.6 -5.82276
      vertex 7.59 -7.6 -5.82276
      vertex 7.59 -8.30711 -6.23101
    endloop
  endfacet
  facet normal -8.12739e-17 0.5 -0.866025
    outer loop
      vertex 7.59 -8.30711 -6.23101
      vertex 8.30711 -8.30711 -6.23101
      vertex 8.30711 -8.34 -6.25
    endloop
  endfacet
  facet normal -8.12739e-17 0.5 -0.866025
    outer loop
      vertex 7.59 -8.30711 -6.23101
      vertex 8.30711 -8.34 -6.25
      vertex 0.51 -8.34 -6.25
    endloop
  endfacet
  facet normal -8.12739e-17 0.5 -0.866025
    outer loop
      vertex 7.59 -8.30711 -6.23101
      vertex 0.51 -8.34 -6.25
      vertex 1.25 -7.6 -5.82276
    endloop
  endfacet
  facet normal 0.5 -2.97485e-17 -0.866025
    outer loop
      vertex 0.51 -5.24 -6.25
      vertex 1.25 -4.5 -5.82276
      vertex 0.51 -6.70711 -6.25
    endloop
  endfacet
  facet normal 0.5 -2.97485e-17 -0.866025
    outer loop
      vertex 0.51 -6.70711 -6.25
      vertex 1.25 -4.5 -5.82276
      vertex 1.25 -7.6 -5.82276
    endloop
  endfacet
  facet normal 0.5 -2.97485e-17 -0.866025
    outer loop
      vertex 0.51 -6.70711 -6.25
      vertex 1.25 -7.6 -5.82276
      vertex 0.51 -8.34 -6.25
    endloop
  endfacet
  facet normal -8.12739e-17 0.5 -0.866025
    outer loop
      vertex 1.25 -4.5 -5.82276
      vertex 0.51 -5.24 -6.25
      vertex -1.25 -4.5 -5.82276
    endloop
  endfacet
  facet normal -8.12739e-17 0.5 -0.866025
    outer loop
      vertex -1.25 -4.5 -5.82276
      vertex 0.51 -5.24 -6.25
      vertex -1.16351e-15 -5.24 -6.25
    endloop
  endfacet
  facet normal -8.12739e-17 0.5 -0.866025
    outer loop
      vertex -1.25 -4.5 -5.82276
      vertex -1.16351e-15 -5.24 -6.25
      vertex -0.51 -5.24 -6.25
    endloop
  endfacet
  facet normal -0.5 2.97485e-17 -0.866025
    outer loop
      vertex -0.51 -5.24 -6.25
      vertex -0.51 -6.70711 -6.25
      vertex -1.25 -4.5 -5.82276
    endloop
  endfacet
  facet normal -0.5 2.97485e-17 -0.866025
    outer loop
      vertex -0.51 -6.70711 -6.25
      vertex -0.51 -8.34 -6.25
      vertex -1.25 -4.5 -5.82276
    endloop
  endfacet
  facet normal -0.5 2.97485e-17 -0.866025
    outer loop
      vertex -0.51 -8.34 -6.25
      vertex -1.25 -7.6 -5.82276
      vertex -1.25 -4.5 -5.82276
    endloop
  endfacet
  facet normal 1 -2.22045e-16 -2.22045e-16
    outer loop
      vertex -8.30711 -8.34 -6.25
      vertex -8.30711 -8.30711 -6.25
      vertex -8.30711 -8.30711 -6.23101
    endloop
  endfacet
  facet normal 1 -2.22045e-16 -2.22045e-16
    outer loop
      vertex -8.30711 -7.59 -6.23101
      vertex -8.30711 -7.59 -5.81699
      vertex -8.30711 -8.30711 -6.23101
    endloop
  endfacet
  facet normal 1 -2.22045e-16 -2.22045e-16
    outer loop
      vertex -8.30711 -7.59 -5.81699
      vertex -8.30711 -8.34 -6.25
      vertex -8.30711 -8.30711 -6.23101
    endloop
  endfacet
  facet normal -2.71926e-32 1 2.22045e-16
    outer loop
      vertex -8.30711 -8.30711 -6.23101
      vertex -8.30711 -8.30711 -6.25
      vertex -8.34 -8.30711 -6.25
    endloop
  endfacet
  facet normal 0.5 1.92296e-16 -0.866025
    outer loop
      vertex -7.6 -7.59 -5.82276
      vertex -8.30711 -7.59 -6.23101
      vertex -7.6 -1.25 -5.82276
    endloop
  endfacet
  facet normal 0.5 1.92296e-16 -0.866025
    outer loop
      vertex -8.34 -8.30711 -6.25
      vertex -8.30711 -7.59 -6.23101
      vertex -8.30711 -8.30711 -6.23101
    endloop
  endfacet
  facet normal 0.5 1.92296e-16 -0.866025
    outer loop
      vertex -8.34 -0.51 -6.25
      vertex -8.30711 -7.59 -6.23101
      vertex -8.34 -8.30711 -6.25
    endloop
  endfacet
  facet normal 0.5 1.92296e-16 -0.866025
    outer loop
      vertex -7.6 -1.25 -5.82276
      vertex -8.30711 -7.59 -6.23101
      vertex -8.34 -0.51 -6.25
    endloop
  endfacet
  facet normal 2.00415e-17 -0.5 -0.866025
    outer loop
      vertex -5.24 -0.51 -6.25
      vertex -4.5 -1.25 -5.82276
      vertex -6.70711 -0.51 -6.25
    endloop
  endfacet
  facet normal 2.00415e-17 -0.5 -0.866025
    outer loop
      vertex -6.70711 -0.51 -6.25
      vertex -4.5 -1.25 -5.82276
      vertex -7.6 -1.25 -5.82276
    endloop
  endfacet
  facet normal 2.00415e-17 -0.5 -0.866025
    outer loop
      vertex -6.70711 -0.51 -6.25
      vertex -7.6 -1.25 -5.82276
      vertex -8.34 -0.51 -6.25
    endloop
  endfacet
  facet normal 0.5 1.31064e-16 -0.866025
    outer loop
      vertex -5.24 0.51 -6.25
      vertex -4.5 1.25 -5.82276
      vertex -4.5 -1.25 -5.82276
    endloop
  endfacet
  facet normal 0.5 1.31064e-16 -0.866025
    outer loop
      vertex -5.24 0.51 -6.25
      vertex -4.5 -1.25 -5.82276
      vertex -5.24 -0.51 -6.25
    endloop
  endfacet
  facet normal 0.5 1.31064e-16 -0.866025
    outer loop
      vertex -5.24 0.51 -6.25
      vertex -5.24 -0.51 -6.25
      vertex -5.24 6.41715e-16 -6.25
    endloop
  endfacet
  facet normal -2.00415e-17 0.5 -0.866025
    outer loop
      vertex -4.5 1.25 -5.82276
      vertex -5.24 0.51 -6.25
      vertex -7.6 1.25 -5.82276
    endloop
  endfacet
  facet normal -2.00415e-17 0.5 -0.866025
    outer loop
      vertex -7.6 1.25 -5.82276
      vertex -5.24 0.51 -6.25
      vertex -6.70711 0.51 -6.25
    endloop
  endfacet
  facet normal -2.00415e-17 0.5 -0.866025
    outer loop
      vertex -7.6 1.25 -5.82276
      vertex -6.70711 0.51 -6.25
      vertex -8.34 0.51 -6.25
    endloop
  endfacet
  facet normal 3.64551e-16 0.5 0.866025
    outer loop
      vertex -6.70711 0.51 6.25
      vertex -5.24 0.51 6.25
      vertex -4.5 1.25 5.82276
    endloop
  endfacet
  facet normal 3.64551e-16 0.5 0.866025
    outer loop
      vertex -7.6 1.25 5.82276
      vertex -6.70711 0.51 6.25
      vertex -4.5 1.25 5.82276
    endloop
  endfacet
  facet normal 3.64551e-16 0.5 0.866025
    outer loop
      vertex -8.34 0.51 6.25
      vertex -6.70711 0.51 6.25
      vertex -7.6 1.25 5.82276
    endloop
  endfacet
  facet normal 0.5 -1.92296e-16 0.866025
    outer loop
      vertex -8.34 0.51 6.25
      vertex -7.6 1.25 5.82276
      vertex -8.30711 7.59 6.23101
    endloop
  endfacet
  facet normal 0.5 -1.92296e-16 0.866025
    outer loop
      vertex -8.30711 7.59 6.23101
      vertex -7.6 1.25 5.82276
      vertex -7.6 7.59 5.82276
    endloop
  endfacet
  facet normal 0.5 -1.92296e-16 0.866025
    outer loop
      vertex -8.34 8.30711 6.25
      vertex -8.30711 7.59 6.23101
      vertex -8.30711 8.30711 6.23101
    endloop
  endfacet
  facet normal 0.5 -1.92296e-16 0.866025
    outer loop
      vertex -8.34 0.51 6.25
      vertex -8.30711 7.59 6.23101
      vertex -8.34 8.30711 6.25
    endloop
  endfacet
  facet normal 0.5 -2.53529e-16 0.866025
    outer loop
      vertex -5.24 0.51 6.25
      vertex -4.5 -1.25 5.82276
      vertex -4.5 1.25 5.82276
    endloop
  endfacet
  facet normal 0.5 -2.53529e-16 0.866025
    outer loop
      vertex -5.24 6.41715e-16 6.25
      vertex -4.5 -1.25 5.82276
      vertex -5.24 0.51 6.25
    endloop
  endfacet
  facet normal 0.5 -2.53529e-16 0.866025
    outer loop
      vertex -5.24 -0.51 6.25
      vertex -4.5 -1.25 5.82276
      vertex -5.24 6.41715e-16 6.25
    endloop
  endfacet
  facet normal -3.64551e-16 -0.5 0.866025
    outer loop
      vertex -7.6 -1.25 5.82276
      vertex -4.5 -1.25 5.82276
      vertex -5.24 -0.51 6.25
    endloop
  endfacet
  facet normal -3.64551e-16 -0.5 0.866025
    outer loop
      vertex -5.24 -0.51 6.25
      vertex -6.70711 -0.51 6.25
      vertex -7.6 -1.25 5.82276
    endloop
  endfacet
  facet normal -3.64551e-16 -0.5 0.866025
    outer loop
      vertex -6.70711 -0.51 6.25
      vertex -8.34 -0.51 6.25
      vertex -7.6 -1.25 5.82276
    endloop
  endfacet
  facet normal -2.71926e-32 1 2.22045e-16
    outer loop
      vertex -8.30711 -8.30711 6.25
      vertex -8.30711 -8.30711 6.23101
      vertex -8.34 -8.30711 6.25
    endloop
  endfacet
  facet normal -2.71926e-32 1 2.22045e-16
    outer loop
      vertex -7.59 -8.30711 5.81699
      vertex -8.30711 -8.30711 6.23101
      vertex -7.59 -8.30711 6.23101
    endloop
  endfacet
  facet normal -2.71926e-32 1 2.22045e-16
    outer loop
      vertex -8.34 -8.30711 6.25
      vertex -8.30711 -8.30711 6.23101
      vertex -7.59 -8.30711 5.81699
    endloop
  endfacet
  facet normal 1 -2.22045e-16 -2.22045e-16
    outer loop
      vertex -8.30711 -8.30711 6.23101
      vertex -8.30711 -8.30711 6.25
      vertex -8.30711 -8.34 6.25
    endloop
  endfacet
  facet normal 3.03319e-16 0.5 0.866025
    outer loop
      vertex -0.51 -8.34 6.25
      vertex -1.25 -7.6 5.82276
      vertex -7.59 -7.6 5.82276
    endloop
  endfacet
  facet normal 3.03319e-16 0.5 0.866025
    outer loop
      vertex -0.51 -8.34 6.25
      vertex -7.59 -8.30711 6.23101
      vertex -8.30711 -8.30711 6.23101
    endloop
  endfacet
  facet normal 3.03319e-16 0.5 0.866025
    outer loop
      vertex -0.51 -8.34 6.25
      vertex -7.59 -7.6 5.82276
      vertex -7.59 -8.30711 6.23101
    endloop
  endfacet
  facet normal 3.03319e-16 0.5 0.866025
    outer loop
      vertex -0.51 -8.34 6.25
      vertex -8.30711 -8.30711 6.23101
      vertex -8.30711 -8.34 6.25
    endloop
  endfacet
  facet normal -0.5 4.14341e-16 0.866025
    outer loop
      vertex -0.51 -8.34 6.25
      vertex -0.51 -6.70711 6.25
      vertex -0.51 -5.24 6.25
    endloop
  endfacet
  facet normal -0.5 4.14341e-16 0.866025
    outer loop
      vertex -1.25 -4.5 5.82276
      vertex -0.51 -8.34 6.25
      vertex -0.51 -5.24 6.25
    endloop
  endfacet
  facet normal -0.5 4.14341e-16 0.866025
    outer loop
      vertex -1.25 -7.6 5.82276
      vertex -0.51 -8.34 6.25
      vertex -1.25 -4.5 5.82276
    endloop
  endfacet
  facet normal 3.03319e-16 0.5 0.866025
    outer loop
      vertex 1.25 -4.5 5.82276
      vertex -0.51 -5.24 6.25
      vertex 0.51 -5.24 6.25
    endloop
  endfacet
  facet normal 3.03319e-16 0.5 0.866025
    outer loop
      vertex 0.51 -5.24 6.25
      vertex -0.51 -5.24 6.25
      vertex -1.16351e-15 -5.24 6.25
    endloop
  endfacet
  facet normal 3.03319e-16 0.5 0.866025
    outer loop
      vertex -1.25 -4.5 5.82276
      vertex -0.51 -5.24 6.25
      vertex 1.25 -4.5 5.82276
    endloop
  endfacet
  facet normal 0.5 -4.14341e-16 0.866025
    outer loop
      vertex 1.25 -7.6 5.82276
      vertex 1.25 -4.5 5.82276
      vertex 0.51 -5.24 6.25
    endloop
  endfacet
  facet normal 0.5 -4.14341e-16 0.866025
    outer loop
      vertex 0.51 -5.24 6.25
      vertex 0.51 -6.70711 6.25
      vertex 1.25 -7.6 5.82276
    endloop
  endfacet
  facet normal 0.5 -4.14341e-16 0.866025
    outer loop
      vertex 0.51 -6.70711 6.25
      vertex 0.51 -8.34 6.25
      vertex 1.25 -7.6 5.82276
    endloop
  endfacet
  facet normal -1 2.22045e-16 2.22045e-16
    outer loop
      vertex 8.30711 -8.30711 6.25
      vertex 8.30711 -8.30711 6.23101
      vertex 8.30711 -8.34 6.25
    endloop
  endfacet
  facet normal -1 2.22045e-16 2.22045e-16
    outer loop
      vertex 8.30711 -7.59 5.81699
      vertex 8.30711 -8.30711 6.23101
      vertex 8.30711 -7.59 6.23101
    endloop
  endfacet
  facet normal -1 2.22045e-16 2.22045e-16
    outer loop
      vertex 8.30711 -8.34 6.25
      vertex 8.30711 -8.30711 6.23101
      vertex 8.30711 -7.59 5.81699
    endloop
  endfacet
  facet normal 0 1 -2.22045e-16
    outer loop
      vertex 8.30711 -8.30711 6.25
      vertex 8.34 -8.30711 6.25
      vertex 8.30711 -8.30711 6.23101
    endloop
  endfacet
  facet normal -0.5 1.92296e-16 0.866025
    outer loop
      vertex 8.30711 -7.59 6.23101
      vertex 8.30711 -8.30711 6.23101
      vertex 8.34 -8.30711 6.25
    endloop
  endfacet
  facet normal -0.5 1.92296e-16 0.866025
    outer loop
      vertex 7.6 -1.25 5.82276
      vertex 8.30711 -7.59 6.23101
      vertex 8.34 -0.51 6.25
    endloop
  endfacet
  facet normal -0.5 1.92296e-16 0.866025
    outer loop
      vertex 8.34 -0.51 6.25
      vertex 8.30711 -7.59 6.23101
      vertex 8.34 -8.30711 6.25
    endloop
  endfacet
  facet normal -0.5 1.92296e-16 0.866025
    outer loop
      vertex 7.6 -7.59 5.82276
      vertex 8.30711 -7.59 6.23101
      vertex 7.6 -1.25 5.82276
    endloop
  endfacet
  facet normal -3.03319e-16 -0.5 0.866025
    outer loop
      vertex 7.6 -1.25 5.82276
      vertex 8.34 -0.51 6.25
      vertex 6.70711 -0.51 6.25
    endloop
  endfacet
  facet normal -3.03319e-16 -0.5 0.866025
    outer loop
      vertex 4.5 -1.25 5.82276
      vertex 7.6 -1.25 5.82276
      vertex 5.24 -0.51 6.25
    endloop
  endfacet
  facet normal -3.03319e-16 -0.5 0.866025
    outer loop
      vertex 5.24 -0.51 6.25
      vertex 7.6 -1.25 5.82276
      vertex 6.70711 -0.51 6.25
    endloop
  endfacet
  facet normal -0.5 1.92296e-16 0.866025
    outer loop
      vertex 4.5 1.25 5.82276
      vertex 5.24 -0.51 6.25
      vertex 5.24 0.51 6.25
    endloop
  endfacet
  facet normal -0.5 1.92296e-16 0.866025
    outer loop
      vertex 5.24 0.51 6.25
      vertex 5.24 -0.51 6.25
      vertex 5.24 0 6.25
    endloop
  endfacet
  facet normal -0.5 1.92296e-16 0.866025
    outer loop
      vertex 4.5 -1.25 5.82276
      vertex 5.24 -0.51 6.25
      vertex 4.5 1.25 5.82276
    endloop
  endfacet
  facet normal 3.03319e-16 0.5 0.866025
    outer loop
      vertex 7.6 1.25 5.82276
      vertex 5.24 0.51 6.25
      vertex 8.34 0.51 6.25
    endloop
  endfacet
  facet normal 3.03319e-16 0.5 0.866025
    outer loop
      vertex 8.34 0.51 6.25
      vertex 5.24 0.51 6.25
      vertex 6.70711 0.51 6.25
    endloop
  endfacet
  facet normal 3.03319e-16 0.5 0.866025
    outer loop
      vertex 4.5 1.25 5.82276
      vertex 5.24 0.51 6.25
      vertex 7.6 1.25 5.82276
    endloop
  endfacet
  facet normal 0 -1 2.22045e-16
    outer loop
      vertex 7.59 8.30711 5.81699
      vertex 8.34 8.30711 6.25
      vertex 8.30711 8.30711 6.23101
    endloop
  endfacet
  facet normal 0 -1 2.22045e-16
    outer loop
      vertex 8.30711 8.30711 6.23101
      vertex 8.34 8.30711 6.25
      vertex 8.30711 8.30711 6.25
    endloop
  endfacet
  facet normal 0 -1 2.22045e-16
    outer loop
      vertex 7.59 8.30711 5.81699
      vertex 8.30711 8.30711 6.23101
      vertex 7.59 8.30711 6.23101
    endloop
  endfacet
  facet normal -1 2.22045e-16 -2.22045e-16
    outer loop
      vertex 8.30711 8.34 6.25
      vertex 8.30711 8.30711 6.23101
      vertex 8.30711 8.30711 6.25
    endloop
  endfacet
  facet normal -3.03319e-16 -0.5 0.866025
    outer loop
      vertex 0.51 8.34 6.25
      vertex 1.25 7.6 5.82276
      vertex 7.59 8.30711 6.23101
    endloop
  endfacet
  facet normal -3.03319e-16 -0.5 0.866025
    outer loop
      vertex 7.59 8.30711 6.23101
      vertex 1.25 7.6 5.82276
      vertex 7.59 7.6 5.82276
    endloop
  endfacet
  facet normal -3.03319e-16 -0.5 0.866025
    outer loop
      vertex 8.30711 8.34 6.25
      vertex 7.59 8.30711 6.23101
      vertex 8.30711 8.30711 6.23101
    endloop
  endfacet
  facet normal -3.03319e-16 -0.5 0.866025
    outer loop
      vertex 0.51 8.34 6.25
      vertex 7.59 8.30711 6.23101
      vertex 8.30711 8.34 6.25
    endloop
  endfacet
  facet normal 0.5 -4.14341e-16 0.866025
    outer loop
      vertex 0.51 6.70711 6.25
      vertex 1.25 4.5 5.82276
      vertex 0.51 8.34 6.25
    endloop
  endfacet
  facet normal 0.5 -4.14341e-16 0.866025
    outer loop
      vertex 0.51 8.34 6.25
      vertex 1.25 4.5 5.82276
      vertex 1.25 7.6 5.82276
    endloop
  endfacet
  facet normal 0.5 -4.14341e-16 0.866025
    outer loop
      vertex 0.51 5.24 6.25
      vertex 1.25 4.5 5.82276
      vertex 0.51 6.70711 6.25
    endloop
  endfacet
  facet normal -3.03319e-16 -0.5 0.866025
    outer loop
      vertex 1.25 4.5 5.82276
      vertex 0.51 5.24 6.25
      vertex 1.16351e-15 5.24 6.25
    endloop
  endfacet
  facet normal -3.03319e-16 -0.5 0.866025
    outer loop
      vertex 1.25 4.5 5.82276
      vertex 1.16351e-15 5.24 6.25
      vertex -0.51 5.24 6.25
    endloop
  endfacet
  facet normal -3.03319e-16 -0.5 0.866025
    outer loop
      vertex 1.25 4.5 5.82276
      vertex -0.51 5.24 6.25
      vertex -1.25 4.5 5.82276
    endloop
  endfacet
  facet normal -0.5 4.14341e-16 0.866025
    outer loop
      vertex -1.25 7.6 5.82276
      vertex -0.51 5.24 6.25
      vertex -0.51 8.34 6.25
    endloop
  endfacet
  facet normal -0.5 4.14341e-16 0.866025
    outer loop
      vertex -0.51 8.34 6.25
      vertex -0.51 5.24 6.25
      vertex -0.51 6.70711 6.25
    endloop
  endfacet
  facet normal -0.5 4.14341e-16 0.866025
    outer loop
      vertex -1.25 4.5 5.82276
      vertex -0.51 5.24 6.25
      vertex -1.25 7.6 5.82276
    endloop
  endfacet
  facet normal 1 -2.22045e-16 2.22045e-16
    outer loop
      vertex -8.30711 8.30711 6.23101
      vertex -8.30711 7.59 5.81699
      vertex -8.30711 8.34 6.25
    endloop
  endfacet
  facet normal 1 -2.22045e-16 2.22045e-16
    outer loop
      vertex -8.30711 8.30711 6.25
      vertex -8.30711 8.30711 6.23101
      vertex -8.30711 8.34 6.25
    endloop
  endfacet
  facet normal 1 -2.22045e-16 2.22045e-16
    outer loop
      vertex -8.30711 8.30711 6.23101
      vertex -8.30711 7.59 6.23101
      vertex -8.30711 7.59 5.81699
    endloop
  endfacet
  facet normal 2.71926e-32 -1 -2.22045e-16
    outer loop
      vertex -8.30711 8.30711 6.23101
      vertex -8.30711 8.30711 6.25
      vertex -8.34 8.30711 6.25
    endloop
  endfacet
  facet normal 0.5 1.92296e-16 -0.866025
    outer loop
      vertex -7.59 7.6 -5.81699
      vertex -7.6 7.6 -5.82276
      vertex -7.59 8.30711 -5.81699
    endloop
  endfacet
  facet normal 0.5 1.92296e-16 -0.866025
    outer loop
      vertex -7.59 8.30711 -5.81699
      vertex -7.6 7.6 -5.82276
      vertex -8.30711 8.30711 -6.23101
    endloop
  endfacet
  facet normal 0.5 1.92296e-16 -0.866025
    outer loop
      vertex -8.30711 7.59 -6.23101
      vertex -7.6 7.59 -5.82276
      vertex -7.6 1.25 -5.82276
    endloop
  endfacet
  facet normal 0.5 1.92296e-16 -0.866025
    outer loop
      vertex -8.30711 7.59 -6.23101
      vertex -7.6 1.25 -5.82276
      vertex -8.34 0.51 -6.25
    endloop
  endfacet
  facet normal 0.5 1.92296e-16 -0.866025
    outer loop
      vertex -8.30711 7.59 -6.23101
      vertex -8.34 0.51 -6.25
      vertex -8.30711 8.30711 -6.23101
    endloop
  endfacet
  facet normal 0.5 1.92296e-16 -0.866025
    outer loop
      vertex -8.30711 8.30711 -6.23101
      vertex -8.34 0.51 -6.25
      vertex -8.34 8.30711 -6.25
    endloop
  endfacet
  facet normal 0.5 1.92296e-16 -0.866025
    outer loop
      vertex -8.30711 8.30711 -6.23101
      vertex -8.34 8.30711 -6.25
      vertex -7.59 8.30711 -5.81699
    endloop
  endfacet
  facet normal -1 2.54072e-33 -1.22465e-16
    outer loop
      vertex -7.59 7.6 -5.82276
      vertex -7.59 7.6 -5.81699
      vertex -7.59 8.30711 -6.23101
    endloop
  endfacet
  facet normal -1 2.54072e-33 -1.22465e-16
    outer loop
      vertex -7.59 8.30711 -6.23101
      vertex -7.59 7.6 -5.81699
      vertex -7.59 8.30711 -5.81699
    endloop
  endfacet
  facet normal 0 -1 0
    outer loop
      vertex -7.59 7.6 -5.81699
      vertex -7.59 7.6 -5.82276
      vertex -1.25 7.6 -5.82276
    endloop
  endfacet
  facet normal 0 -1 0
    outer loop
      vertex -7.59 7.6 5.81699
      vertex -7.59 7.6 -5.81699
      vertex -1.25 7.6 5.82276
    endloop
  endfacet
  facet normal 0 -1 0
    outer loop
      vertex -1.25 7.6 5.82276
      vertex -7.59 7.6 -5.81699
      vertex -1.25 7.6 -5.82276
    endloop
  endfacet
  facet normal 0 -1 0
    outer loop
      vertex -7.59 7.6 5.82276
      vertex -7.59 7.6 5.81699
      vertex -1.25 7.6 5.82276
    endloop
  endfacet
  facet normal 0 -1 0
    outer loop
      vertex -7.59 7.6 5.81699
      vertex -7.6 7.6 5.82276
      vertex -7.59 7.6 -5.81699
    endloop
  endfacet
  facet normal 0 -1 0
    outer loop
      vertex -7.6 7.6 -5.82276
      vertex -7.59 7.6 -5.81699
      vertex -7.6 7.6 5.82276
    endloop
  endfacet
  facet normal -1 2.22045e-16 0
    outer loop
      vertex -1.25 4.5 -5.82276
      vertex -1.25 4.5 5.82276
      vertex -1.25 7.6 -5.82276
    endloop
  endfacet
  facet normal -1 2.22045e-16 0
    outer loop
      vertex -1.25 7.6 -5.82276
      vertex -1.25 4.5 5.82276
      vertex -1.25 7.6 5.82276
    endloop
  endfacet
  facet normal -2.22045e-16 -1 0
    outer loop
      vertex 1.25 4.5 5.82276
      vertex -1.25 4.5 5.82276
      vertex 1.25 4.5 -5.82276
    endloop
  endfacet
  facet normal -2.22045e-16 -1 0
    outer loop
      vertex 1.25 4.5 -5.82276
      vertex -1.25 4.5 5.82276
      vertex -1.25 4.5 -5.82276
    endloop
  endfacet
  facet normal 1 -2.22045e-16 0
    outer loop
      vertex 1.25 7.6 -5.82276
      vertex 1.25 4.5 5.82276
      vertex 1.25 4.5 -5.82276
    endloop
  endfacet
  facet normal 1 -2.22045e-16 0
    outer loop
      vertex 1.25 7.6 -5.82276
      vertex 1.25 7.6 5.82276
      vertex 1.25 4.5 5.82276
    endloop
  endfacet
  facet normal 8.12739e-17 -0.5 -0.866025
    outer loop
      vertex 7.6 7.6 -5.82276
      vertex 8.30711 7.59 -5.81699
      vertex 7.6 7.59 -5.81699
    endloop
  endfacet
  facet normal 8.12739e-17 -0.5 -0.866025
    outer loop
      vertex 8.30711 8.34 -6.25
      vertex 8.30711 7.59 -5.81699
      vertex 8.30711 8.30711 -6.23101
    endloop
  endfacet
  facet normal 8.12739e-17 -0.5 -0.866025
    outer loop
      vertex 8.30711 8.34 -6.25
      vertex 8.30711 8.30711 -6.23101
      vertex 0.51 8.34 -6.25
    endloop
  endfacet
  facet normal 8.12739e-17 -0.5 -0.866025
    outer loop
      vertex 7.59 7.6 -5.82276
      vertex 0.51 8.34 -6.25
      vertex 7.59 8.30711 -6.23101
    endloop
  endfacet
  facet normal 8.12739e-17 -0.5 -0.866025
    outer loop
      vertex 8.30711 8.30711 -6.23101
      vertex 7.59 8.30711 -6.23101
      vertex 0.51 8.34 -6.25
    endloop
  endfacet
  facet normal 8.12739e-17 -0.5 -0.866025
    outer loop
      vertex 1.25 7.6 -5.82276
      vertex 0.51 8.34 -6.25
      vertex 7.59 7.6 -5.82276
    endloop
  endfacet
  facet normal 8.12739e-17 -0.5 -0.866025
    outer loop
      vertex 8.30711 8.30711 -6.23101
      vertex 8.30711 7.59 -5.81699
      vertex 7.6 7.6 -5.82276
    endloop
  endfacet
  facet normal 2.22045e-16 1 4.93038e-32
    outer loop
      vertex 8.30711 7.59 -6.23101
      vertex 7.6 7.59 -5.82276
      vertex 8.30711 7.59 -5.81699
    endloop
  endfacet
  facet normal 2.22045e-16 1 4.93038e-32
    outer loop
      vertex 8.30711 7.59 -5.81699
      vertex 7.6 7.59 -5.82276
      vertex 7.6 7.59 -5.81699
    endloop
  endfacet
  facet normal -1 0 0
    outer loop
      vertex 7.6 1.25 5.82276
      vertex 7.6 7.59 5.82276
      vertex 7.6 1.25 -5.82276
    endloop
  endfacet
  facet normal -1 0 0
    outer loop
      vertex 7.6 1.25 -5.82276
      vertex 7.6 7.59 5.82276
      vertex 7.6 7.59 5.81699
    endloop
  endfacet
  facet normal -1 0 0
    outer loop
      vertex 7.6 1.25 -5.82276
      vertex 7.6 7.59 5.81699
      vertex 7.6 7.6 5.82276
    endloop
  endfacet
  facet normal -1 0 0
    outer loop
      vertex 7.6 7.59 -5.81699
      vertex 7.6 7.6 5.82276
      vertex 7.6 7.6 -5.82276
    endloop
  endfacet
  facet normal -1 0 0
    outer loop
      vertex 7.6 1.25 -5.82276
      vertex 7.6 7.6 5.82276
      vertex 7.6 7.59 -5.81699
    endloop
  endfacet
  facet normal -1 0 0
    outer loop
      vertex 7.6 7.59 -5.82276
      vertex 7.6 1.25 -5.82276
      vertex 7.6 7.59 -5.81699
    endloop
  endfacet
  facet normal -1 0 0
    outer loop
      vertex 4.5 -1.25 -5.82276
      vertex 4.5 -1.25 5.82276
      vertex 4.5 1.25 -5.82276
    endloop
  endfacet
  facet normal -1 0 0
    outer loop
      vertex 4.5 1.25 -5.82276
      vertex 4.5 -1.25 5.82276
      vertex 4.5 1.25 5.82276
    endloop
  endfacet
  facet normal 0 1 0
    outer loop
      vertex 4.5 1.25 -5.82276
      vertex 4.5 1.25 5.82276
      vertex 7.6 1.25 -5.82276
    endloop
  endfacet
  facet normal 0 1 0
    outer loop
      vertex 7.6 1.25 -5.82276
      vertex 4.5 1.25 5.82276
      vertex 7.6 1.25 5.82276
    endloop
  endfacet
  facet normal 0 -1 0
    outer loop
      vertex 7.6 -1.25 -5.82276
      vertex 4.5 -1.25 5.82276
      vertex 4.5 -1.25 -5.82276
    endloop
  endfacet
  facet normal 0 -1 0
    outer loop
      vertex 7.6 -1.25 -5.82276
      vertex 7.6 -1.25 5.82276
      vertex 4.5 -1.25 5.82276
    endloop
  endfacet
  facet normal -0.5 -1.92296e-16 -0.866025
    outer loop
      vertex 7.6 -7.6 -5.82276
      vertex 8.30711 -8.30711 -6.23101
      vertex 7.59 -7.6 -5.81699
    endloop
  endfacet
  facet normal -0.5 -1.92296e-16 -0.866025
    outer loop
      vertex 8.34 -8.30711 -6.25
      vertex 7.59 -8.30711 -5.81699
      vertex 8.30711 -8.30711 -6.23101
    endloop
  endfacet
  facet normal -0.5 -1.92296e-16 -0.866025
    outer loop
      vertex 8.30711 -7.59 -6.23101
      vertex 7.6 -7.59 -5.82276
      vertex 7.6 -1.25 -5.82276
    endloop
  endfacet
  facet normal -0.5 -1.92296e-16 -0.866025
    outer loop
      vertex 8.30711 -8.30711 -6.23101
      vertex 8.30711 -7.59 -6.23101
      vertex 8.34 -0.51 -6.25
    endloop
  endfacet
  facet normal -0.5 -1.92296e-16 -0.866025
    outer loop
      vertex 8.30711 -7.59 -6.23101
      vertex 7.6 -1.25 -5.82276
      vertex 8.34 -0.51 -6.25
    endloop
  endfacet
  facet normal -0.5 -1.92296e-16 -0.866025
    outer loop
      vertex 8.34 -0.51 -6.25
      vertex 8.34 -8.30711 -6.25
      vertex 8.30711 -8.30711 -6.23101
    endloop
  endfacet
  facet normal -0.5 -1.92296e-16 -0.866025
    outer loop
      vertex 8.30711 -8.30711 -6.23101
      vertex 7.59 -8.30711 -5.81699
      vertex 7.59 -7.6 -5.81699
    endloop
  endfacet
  facet normal 1 0 0
    outer loop
      vertex 7.59 -7.6 -5.82276
      vertex 7.59 -7.6 -5.81699
      vertex 7.59 -8.30711 -5.81699
    endloop
  endfacet
  facet normal 1 0 0
    outer loop
      vertex 7.59 -8.30711 -6.23101
      vertex 7.59 -7.6 -5.82276
      vertex 7.59 -8.30711 -5.81699
    endloop
  endfacet
  facet normal 1 -2.22045e-16 0
    outer loop
      vertex 1.25 -7.6 -5.82276
      vertex 1.25 -4.5 -5.82276
      vertex 1.25 -4.5 5.82276
    endloop
  endfacet
  facet normal 1 -2.22045e-16 0
    outer loop
      vertex 1.25 -7.6 -5.82276
      vertex 1.25 -4.5 5.82276
      vertex 1.25 -7.6 5.82276
    endloop
  endfacet
  facet normal 0 1 0
    outer loop
      vertex 7.59 -7.6 5.82276
      vertex 7.59 -7.6 5.81699
      vertex 1.25 -7.6 5.82276
    endloop
  endfacet
  facet normal 0 1 0
    outer loop
      vertex 7.6 -7.6 -5.82276
      vertex 7.59 -7.6 5.81699
      vertex 7.6 -7.6 5.82276
    endloop
  endfacet
  facet normal 0 1 0
    outer loop
      vertex 1.25 -7.6 5.82276
      vertex 7.59 -7.6 5.81699
      vertex 7.6 -7.6 -5.82276
    endloop
  endfacet
  facet normal 0 1 0
    outer loop
      vertex 1.25 -7.6 5.82276
      vertex 7.6 -7.6 -5.82276
      vertex 7.59 -7.6 -5.81699
    endloop
  endfacet
  facet normal 0 1 0
    outer loop
      vertex 1.25 -7.6 5.82276
      vertex 7.59 -7.6 -5.81699
      vertex 7.59 -7.6 -5.82276
    endloop
  endfacet
  facet normal 0 1 0
    outer loop
      vertex 1.25 -7.6 5.82276
      vertex 7.59 -7.6 -5.82276
      vertex 1.25 -7.6 -5.82276
    endloop
  endfacet
  facet normal 2.22045e-16 1 0
    outer loop
      vertex -1.25 -4.5 -5.82276
      vertex -1.25 -4.5 5.82276
      vertex 1.25 -4.5 -5.82276
    endloop
  endfacet
  facet normal 2.22045e-16 1 0
    outer loop
      vertex 1.25 -4.5 -5.82276
      vertex -1.25 -4.5 5.82276
      vertex 1.25 -4.5 5.82276
    endloop
  endfacet
  facet normal -1 2.22045e-16 0
    outer loop
      vertex -1.25 -4.5 -5.82276
      vertex -1.25 -7.6 -5.82276
      vertex -1.25 -7.6 5.82276
    endloop
  endfacet
  facet normal -1 2.22045e-16 0
    outer loop
      vertex -1.25 -7.6 5.82276
      vertex -1.25 -4.5 5.82276
      vertex -1.25 -4.5 -5.82276
    endloop
  endfacet
  facet normal -8.12739e-17 0.5 -0.866025
    outer loop
      vertex -7.6 -7.59 -5.81699
      vertex -7.6 -7.6 -5.82276
      vertex -8.30711 -7.59 -5.81699
    endloop
  endfacet
  facet normal -8.12739e-17 0.5 -0.866025
    outer loop
      vertex -8.30711 -7.59 -5.81699
      vertex -7.6 -7.6 -5.82276
      vertex -8.30711 -8.30711 -6.23101
    endloop
  endfacet
  facet normal -8.12739e-17 0.5 -0.866025
    outer loop
      vertex -7.59 -8.30711 -6.23101
      vertex -7.59 -7.6 -5.82276
      vertex -1.25 -7.6 -5.82276
    endloop
  endfacet
  facet normal -8.12739e-17 0.5 -0.866025
    outer loop
      vertex -7.59 -8.30711 -6.23101
      vertex -1.25 -7.6 -5.82276
      vertex -0.51 -8.34 -6.25
    endloop
  endfacet
  facet normal -8.12739e-17 0.5 -0.866025
    outer loop
      vertex -7.59 -8.30711 -6.23101
      vertex -0.51 -8.34 -6.25
      vertex -8.30711 -8.30711 -6.23101
    endloop
  endfacet
  facet normal -8.12739e-17 0.5 -0.866025
    outer loop
      vertex -8.30711 -8.30711 -6.23101
      vertex -0.51 -8.34 -6.25
      vertex -8.30711 -8.34 -6.25
    endloop
  endfacet
  facet normal -8.12739e-17 0.5 -0.866025
    outer loop
      vertex -8.30711 -8.30711 -6.23101
      vertex -8.30711 -8.34 -6.25
      vertex -8.30711 -7.59 -5.81699
    endloop
  endfacet
  facet normal -2.22045e-16 -1 4.93038e-32
    outer loop
      vertex -7.6 -7.59 -5.82276
      vertex -7.6 -7.59 -5.81699
      vertex -8.30711 -7.59 -5.81699
    endloop
  endfacet
  facet normal -2.22045e-16 -1 4.93038e-32
    outer loop
      vertex -8.30711 -7.59 -6.23101
      vertex -7.6 -7.59 -5.82276
      vertex -8.30711 -7.59 -5.81699
    endloop
  endfacet
  facet normal 1 0 0
    outer loop
      vertex -7.6 -7.59 -5.81699
      vertex -7.6 -7.59 -5.82276
      vertex -7.6 -1.25 -5.82276
    endloop
  endfacet
  facet normal 1 0 0
    outer loop
      vertex -7.6 -1.25 5.82276
      vertex -7.6 -7.59 -5.81699
      vertex -7.6 -1.25 -5.82276
    endloop
  endfacet
  facet normal 1 0 0
    outer loop
      vertex -7.6 -7.59 5.82276
      vertex -7.6 -7.59 -5.81699
      vertex -7.6 -1.25 5.82276
    endloop
  endfacet
  facet normal 1 0 0
    outer loop
      vertex -7.6 -7.6 -5.82276
      vertex -7.6 -7.59 5.81699
      vertex -7.6 -7.6 5.82276
    endloop
  endfacet
  facet normal 1 0 0
    outer loop
      vertex -7.6 -7.59 5.81699
      vertex -7.6 -7.59 -5.81699
      vertex -7.6 -7.59 5.82276
    endloop
  endfacet
  facet normal 1 0 0
    outer loop
      vertex -7.6 -7.6 -5.82276
      vertex -7.6 -7.59 -5.81699
      vertex -7.6 -7.59 5.81699
    endloop
  endfacet
  facet normal -1.22465e-16 -1 0
    outer loop
      vertex -7.6 -1.25 -5.82276
      vertex -4.5 -1.25 5.82276
      vertex -7.6 -1.25 5.82276
    endloop
  endfacet
  facet normal -1.22465e-16 -1 0
    outer loop
      vertex -7.6 -1.25 -5.82276
      vertex -4.5 -1.25 -5.82276
      vertex -4.5 -1.25 5.82276
    endloop
  endfacet
  facet normal 1 -1.22465e-16 0
    outer loop
      vertex -4.5 1.25 5.82276
      vertex -4.5 -1.25 5.82276
      vertex -4.5 1.25 -5.82276
    endloop
  endfacet
  facet normal 1 -1.22465e-16 0
    outer loop
      vertex -4.5 1.25 -5.82276
      vertex -4.5 -1.25 5.82276
      vertex -4.5 -1.25 -5.82276
    endloop
  endfacet
  facet normal 1.22465e-16 1 0
    outer loop
      vertex -4.5 1.25 -5.82276
      vertex -7.6 1.25 -5.82276
      vertex -7.6 1.25 5.82276
    endloop
  endfacet
  facet normal 1.22465e-16 1 0
    outer loop
      vertex -7.6 1.25 5.82276
      vertex -4.5 1.25 5.82276
      vertex -4.5 1.25 -5.82276
    endloop
  endfacet
  facet normal 2.22045e-16 1 4.93038e-32
    outer loop
      vertex -7.6 7.59 5.81699
      vertex -8.30711 7.59 5.81699
      vertex -7.6 7.59 5.82276
    endloop
  endfacet
  facet normal 2.22045e-16 1 4.93038e-32
    outer loop
      vertex -7.6 7.59 5.82276
      vertex -8.30711 7.59 5.81699
      vertex -8.30711 7.59 6.23101
    endloop
  endfacet
  facet normal 1 0 0
    outer loop
      vertex -7.6 7.6 5.82276
      vertex -7.6 7.59 -5.81699
      vertex -7.6 7.6 -5.82276
    endloop
  endfacet
  facet normal 1 0 0
    outer loop
      vertex -7.6 7.59 -5.82276
      vertex -7.6 7.59 -5.81699
      vertex -7.6 1.25 5.82276
    endloop
  endfacet
  facet normal 1 0 0
    outer loop
      vertex -7.6 7.59 5.81699
      vertex -7.6 7.59 -5.81699
      vertex -7.6 7.6 5.82276
    endloop
  endfacet
  facet normal 1 0 0
    outer loop
      vertex -7.6 7.59 5.82276
      vertex -7.6 7.59 -5.81699
      vertex -7.6 7.59 5.81699
    endloop
  endfacet
  facet normal 1 0 0
    outer loop
      vertex -7.6 1.25 5.82276
      vertex -7.6 7.59 -5.81699
      vertex -7.6 7.59 5.82276
    endloop
  endfacet
  facet normal 1 0 0
    outer loop
      vertex -7.6 1.25 -5.82276
      vertex -7.6 7.59 -5.82276
      vertex -7.6 1.25 5.82276
    endloop
  endfacet
  facet normal 0.5 -1.92296e-16 0.866025
    outer loop
      vertex -8.30711 -8.30711 6.23101
      vertex -7.59 -8.30711 5.81699
      vertex -7.59 -7.6 5.81699
    endloop
  endfacet
  facet normal 0.5 -1.92296e-16 0.866025
    outer loop
      vertex -8.30711 -8.30711 6.23101
      vertex -8.30711 -7.59 6.23101
      vertex -8.34 -8.30711 6.25
    endloop
  endfacet
  facet normal 0.5 -1.92296e-16 0.866025
    outer loop
      vertex -8.34 -8.30711 6.25
      vertex -7.59 -8.30711 5.81699
      vertex -8.30711 -8.30711 6.23101
    endloop
  endfacet
  facet normal 0.5 -1.92296e-16 0.866025
    outer loop
      vertex -8.34 -0.51 6.25
      vertex -8.34 -8.30711 6.25
      vertex -8.30711 -7.59 6.23101
    endloop
  endfacet
  facet normal 0.5 -1.92296e-16 0.866025
    outer loop
      vertex -7.6 -1.25 5.82276
      vertex -8.30711 -7.59 6.23101
      vertex -7.6 -7.59 5.82276
    endloop
  endfacet
  facet normal 0.5 -1.92296e-16 0.866025
    outer loop
      vertex -8.34 -0.51 6.25
      vertex -8.30711 -7.59 6.23101
      vertex -7.6 -1.25 5.82276
    endloop
  endfacet
  facet normal 0.5 -1.92296e-16 0.866025
    outer loop
      vertex -7.6 -7.6 5.82276
      vertex -8.30711 -8.30711 6.23101
      vertex -7.59 -7.6 5.81699
    endloop
  endfacet
  facet normal -1 2.54072e-33 -1.22465e-16
    outer loop
      vertex -7.59 -7.6 5.81699
      vertex -7.59 -8.30711 5.81699
      vertex -7.59 -7.6 5.82276
    endloop
  endfacet
  facet normal -1 2.54072e-33 -1.22465e-16
    outer loop
      vertex -7.59 -7.6 5.82276
      vertex -7.59 -8.30711 5.81699
      vertex -7.59 -8.30711 6.23101
    endloop
  endfacet
  facet normal 0 1 0
    outer loop
      vertex -7.59 -7.6 5.81699
      vertex -7.59 -7.6 5.82276
      vertex -1.25 -7.6 5.82276
    endloop
  endfacet
  facet normal 0 1 0
    outer loop
      vertex -7.59 -7.6 5.81699
      vertex -1.25 -7.6 5.82276
      vertex -1.25 -7.6 -5.82276
    endloop
  endfacet
  facet normal 0 1 0
    outer loop
      vertex -7.59 -7.6 5.81699
      vertex -1.25 -7.6 -5.82276
      vertex -7.6 -7.6 5.82276
    endloop
  endfacet
  facet normal 0 1 0
    outer loop
      vertex -1.25 -7.6 -5.82276
      vertex -7.59 -7.6 -5.82276
      vertex -7.59 -7.6 -5.81699
    endloop
  endfacet
  facet normal 0 1 0
    outer loop
      vertex -1.25 -7.6 -5.82276
      vertex -7.59 -7.6 -5.81699
      vertex -7.6 -7.6 5.82276
    endloop
  endfacet
  facet normal 0 1 0
    outer loop
      vertex -7.6 -7.6 -5.82276
      vertex -7.6 -7.6 5.82276
      vertex -7.59 -7.6 -5.81699
    endloop
  endfacet
  facet normal 3.03319e-16 0.5 0.866025
    outer loop
      vertex 8.30711 -8.30711 6.23101
      vertex 8.30711 -8.34 6.25
      vertex 8.30711 -7.59 5.81699
    endloop
  endfacet
  facet normal 3.03319e-16 0.5 0.866025
    outer loop
      vertex 7.6 -7.59 5.81699
      vertex 7.6 -7.6 5.82276
      vertex 8.30711 -7.59 5.81699
    endloop
  endfacet
  facet normal 3.03319e-16 0.5 0.866025
    outer loop
      vertex 0.51 -8.34 6.25
      vertex 8.30711 -8.34 6.25
      vertex 8.30711 -8.30711 6.23101
    endloop
  endfacet
  facet normal 3.03319e-16 0.5 0.866025
    outer loop
      vertex 7.59 -8.30711 6.23101
      vertex 7.59 -7.6 5.82276
      vertex 0.51 -8.34 6.25
    endloop
  endfacet
  facet normal 3.03319e-16 0.5 0.866025
    outer loop
      vertex 0.51 -8.34 6.25
      vertex 8.30711 -8.30711 6.23101
      vertex 7.59 -8.30711 6.23101
    endloop
  endfacet
  facet normal 3.03319e-16 0.5 0.866025
    outer loop
      vertex 7.59 -7.6 5.82276
      vertex 1.25 -7.6 5.82276
      vertex 0.51 -8.34 6.25
    endloop
  endfacet
  facet normal 3.03319e-16 0.5 0.866025
    outer loop
      vertex 7.6 -7.6 5.82276
      vertex 8.30711 -8.30711 6.23101
      vertex 8.30711 -7.59 5.81699
    endloop
  endfacet
  facet normal -2.22045e-16 -1 4.93038e-32
    outer loop
      vertex 8.30711 -7.59 5.81699
      vertex 8.30711 -7.59 6.23101
      vertex 7.6 -7.59 5.82276
    endloop
  endfacet
  facet normal -2.22045e-16 -1 4.93038e-32
    outer loop
      vertex 7.6 -7.59 5.81699
      vertex 8.30711 -7.59 5.81699
      vertex 7.6 -7.59 5.82276
    endloop
  endfacet
  facet normal -1 0 0
    outer loop
      vertex 7.6 -7.59 5.81699
      vertex 7.6 -7.59 5.82276
      vertex 7.6 -1.25 5.82276
    endloop
  endfacet
  facet normal -1 0 0
    outer loop
      vertex 7.6 -7.59 5.81699
      vertex 7.6 -1.25 5.82276
      vertex 7.6 -1.25 -5.82276
    endloop
  endfacet
  facet normal -1 0 0
    outer loop
      vertex 7.6 -7.59 5.81699
      vertex 7.6 -1.25 -5.82276
      vertex 7.6 -7.6 5.82276
    endloop
  endfacet
  facet normal -1 0 0
    outer loop
      vertex 7.6 -1.25 -5.82276
      vertex 7.6 -7.59 -5.82276
      vertex 7.6 -7.59 -5.81699
    endloop
  endfacet
  facet normal -1 0 0
    outer loop
      vertex 7.6 -1.25 -5.82276
      vertex 7.6 -7.59 -5.81699
      vertex 7.6 -7.6 5.82276
    endloop
  endfacet
  facet normal -1 0 0
    outer loop
      vertex 7.6 -7.6 -5.82276
      vertex 7.6 -7.6 5.82276
      vertex 7.6 -7.59 -5.81699
    endloop
  endfacet
  facet normal -0.5 1.92296e-16 0.866025
    outer loop
      vertex 8.30711 7.59 6.23101
      vertex 8.34 0.51 6.25
      vertex 8.30711 8.30711 6.23101
    endloop
  endfacet
  facet normal -0.5 1.92296e-16 0.866025
    outer loop
      vertex 7.6 1.25 5.82276
      vertex 8.34 0.51 6.25
      vertex 8.30711 7.59 6.23101
    endloop
  endfacet
  facet normal -0.5 1.92296e-16 0.866025
    outer loop
      vertex 7.59 8.30711 5.81699
      vertex 7.6 7.6 5.82276
      vertex 8.30711 8.30711 6.23101
    endloop
  endfacet
  facet normal -0.5 1.92296e-16 0.866025
    outer loop
      vertex 7.6 7.59 5.82276
      vertex 7.6 1.25 5.82276
      vertex 8.30711 7.59 6.23101
    endloop
  endfacet
  facet normal -0.5 1.92296e-16 0.866025
    outer loop
      vertex 8.34 0.51 6.25
      vertex 8.34 8.30711 6.25
      vertex 8.30711 8.30711 6.23101
    endloop
  endfacet
  facet normal -0.5 1.92296e-16 0.866025
    outer loop
      vertex 8.34 8.30711 6.25
      vertex 7.59 8.30711 5.81699
      vertex 8.30711 8.30711 6.23101
    endloop
  endfacet
  facet normal -0.5 1.92296e-16 0.866025
    outer loop
      vertex 7.59 7.6 5.81699
      vertex 7.6 7.6 5.82276
      vertex 7.59 8.30711 5.81699
    endloop
  endfacet
  facet normal 1 0 0
    outer loop
      vertex 7.59 8.30711 5.81699
      vertex 7.59 8.30711 6.23101
      vertex 7.59 7.6 5.82276
    endloop
  endfacet
  facet normal 1 0 0
    outer loop
      vertex 7.59 7.6 5.81699
      vertex 7.59 8.30711 5.81699
      vertex 7.59 7.6 5.82276
    endloop
  endfacet
  facet normal 0 -1 0
    outer loop
      vertex 7.6 7.6 5.82276
      vertex 7.59 7.6 -5.81699
      vertex 7.6 7.6 -5.82276
    endloop
  endfacet
  facet normal 0 -1 0
    outer loop
      vertex 7.59 7.6 -5.82276
      vertex 7.59 7.6 -5.81699
      vertex 1.25 7.6 5.82276
    endloop
  endfacet
  facet normal 0 -1 0
    outer loop
      vertex 7.59 7.6 5.81699
      vertex 7.59 7.6 -5.81699
      vertex 7.6 7.6 5.82276
    endloop
  endfacet
  facet normal 0 -1 0
    outer loop
      vertex 1.25 7.6 5.82276
      vertex 7.59 7.6 -5.81699
      vertex 7.59 7.6 5.81699
    endloop
  endfacet
  facet normal 0 -1 0
    outer loop
      vertex 1.25 7.6 5.82276
      vertex 7.59 7.6 5.81699
      vertex 7.59 7.6 5.82276
    endloop
  endfacet
  facet normal 0 -1 0
    outer loop
      vertex 1.25 7.6 -5.82276
      vertex 7.59 7.6 -5.82276
      vertex 1.25 7.6 5.82276
    endloop
  endfacet
  facet normal -3.03319e-16 -0.5 0.866025
    outer loop
      vertex -7.6 7.59 5.81699
      vertex -7.6 7.6 5.82276
      vertex -8.30711 8.30711 6.23101
    endloop
  endfacet
  facet normal -3.03319e-16 -0.5 0.866025
    outer loop
      vertex -7.59 7.6 5.82276
      vertex -1.25 7.6 5.82276
      vertex -7.59 8.30711 6.23101
    endloop
  endfacet
  facet normal -3.03319e-16 -0.5 0.866025
    outer loop
      vertex -7.6 7.59 5.81699
      vertex -8.30711 8.30711 6.23101
      vertex -8.30711 7.59 5.81699
    endloop
  endfacet
  facet normal -3.03319e-16 -0.5 0.866025
    outer loop
      vertex -0.51 8.34 6.25
      vertex -8.30711 8.30711 6.23101
      vertex -7.59 8.30711 6.23101
    endloop
  endfacet
  facet normal -3.03319e-16 -0.5 0.866025
    outer loop
      vertex -1.25 7.6 5.82276
      vertex -0.51 8.34 6.25
      vertex -7.59 8.30711 6.23101
    endloop
  endfacet
  facet normal -3.03319e-16 -0.5 0.866025
    outer loop
      vertex -0.51 8.34 6.25
      vertex -8.30711 8.34 6.25
      vertex -8.30711 8.30711 6.23101
    endloop
  endfacet
  facet normal -3.03319e-16 -0.5 0.866025
    outer loop
      vertex -8.30711 8.34 6.25
      vertex -8.30711 7.59 5.81699
      vertex -8.30711 8.30711 6.23101
    endloop
  endfacet
  facet normal 2.22045e-16 1 4.93038e-32
    outer loop
      vertex -7.6 7.59 -5.82276
      vertex -8.30711 7.59 -6.23101
      vertex -7.6 7.59 -5.81699
    endloop
  endfacet
  facet normal 2.22045e-16 1 4.93038e-32
    outer loop
      vertex -7.6 7.59 -5.81699
      vertex -8.30711 7.59 -6.23101
      vertex -8.30711 7.59 -5.81699
    endloop
  endfacet
  facet normal 1 -2.22045e-16 2.22045e-16
    outer loop
      vertex -8.30711 7.59 -6.23101
      vertex -8.30711 8.30711 -6.23101
      vertex -8.30711 7.59 -5.81699
    endloop
  endfacet
  facet normal 8.12739e-17 -0.5 -0.866025
    outer loop
      vertex -7.6 7.6 -5.82276
      vertex -7.6 7.59 -5.81699
      vertex -8.30711 8.30711 -6.23101
    endloop
  endfacet
  facet normal 8.12739e-17 -0.5 -0.866025
    outer loop
      vertex -8.30711 8.30711 -6.23101
      vertex -7.6 7.59 -5.81699
      vertex -8.30711 7.59 -5.81699
    endloop
  endfacet
  facet normal 0.5 -1.92296e-16 0.866025
    outer loop
      vertex -7.6 7.6 5.82276
      vertex -7.59 7.6 5.81699
      vertex -7.59 8.30711 5.81699
    endloop
  endfacet
  facet normal 0.5 -1.92296e-16 0.866025
    outer loop
      vertex -8.30711 8.30711 6.23101
      vertex -7.6 7.6 5.82276
      vertex -7.59 8.30711 5.81699
    endloop
  endfacet
  facet normal -1 2.54072e-33 -1.22465e-16
    outer loop
      vertex -7.59 7.6 5.81699
      vertex -7.59 7.6 5.82276
      vertex -7.59 8.30711 5.81699
    endloop
  endfacet
  facet normal -1 2.54072e-33 -1.22465e-16
    outer loop
      vertex -7.59 8.30711 5.81699
      vertex -7.59 7.6 5.82276
      vertex -7.59 8.30711 6.23101
    endloop
  endfacet
  facet normal 1 0 0
    outer loop
      vertex 7.59 8.30711 -6.23101
      vertex 7.59 8.30711 -5.81699
      vertex 7.59 7.6 -5.81699
    endloop
  endfacet
  facet normal 1 0 0
    outer loop
      vertex 7.59 7.6 -5.82276
      vertex 7.59 8.30711 -6.23101
      vertex 7.59 7.6 -5.81699
    endloop
  endfacet
  facet normal 0 -1 2.22045e-16
    outer loop
      vertex 8.30711 8.30711 -6.23101
      vertex 7.59 8.30711 -5.81699
      vertex 7.59 8.30711 -6.23101
    endloop
  endfacet
  facet normal -0.5 -1.92296e-16 -0.866025
    outer loop
      vertex 8.30711 8.30711 -6.23101
      vertex 7.6 7.6 -5.82276
      vertex 7.59 8.30711 -5.81699
    endloop
  endfacet
  facet normal -0.5 -1.92296e-16 -0.866025
    outer loop
      vertex 7.59 8.30711 -5.81699
      vertex 7.6 7.6 -5.82276
      vertex 7.59 7.6 -5.81699
    endloop
  endfacet
  facet normal -3.03319e-16 -0.5 0.866025
    outer loop
      vertex 8.30711 7.59 5.81699
      vertex 8.30711 8.30711 6.23101
      vertex 7.6 7.6 5.82276
    endloop
  endfacet
  facet normal -3.03319e-16 -0.5 0.866025
    outer loop
      vertex 7.6 7.59 5.81699
      vertex 8.30711 7.59 5.81699
      vertex 7.6 7.6 5.82276
    endloop
  endfacet
  facet normal 2.22045e-16 1 4.93038e-32
    outer loop
      vertex 8.30711 7.59 5.81699
      vertex 7.6 7.59 5.81699
      vertex 8.30711 7.59 6.23101
    endloop
  endfacet
  facet normal 2.22045e-16 1 4.93038e-32
    outer loop
      vertex 8.30711 7.59 6.23101
      vertex 7.6 7.59 5.81699
      vertex 7.6 7.59 5.82276
    endloop
  endfacet
  facet normal -2.22045e-16 -1 4.93038e-32
    outer loop
      vertex 8.30711 -7.59 -6.23101
      vertex 8.30711 -7.59 -5.81699
      vertex 7.6 -7.59 -5.81699
    endloop
  endfacet
  facet normal -2.22045e-16 -1 4.93038e-32
    outer loop
      vertex 7.6 -7.59 -5.82276
      vertex 8.30711 -7.59 -6.23101
      vertex 7.6 -7.59 -5.81699
    endloop
  endfacet
  facet normal -1 2.22045e-16 2.22045e-16
    outer loop
      vertex 8.30711 -7.59 -5.81699
      vertex 8.30711 -7.59 -6.23101
      vertex 8.30711 -8.30711 -6.23101
    endloop
  endfacet
  facet normal -8.12739e-17 0.5 -0.866025
    outer loop
      vertex 8.30711 -7.59 -5.81699
      vertex 8.30711 -8.30711 -6.23101
      vertex 7.6 -7.59 -5.81699
    endloop
  endfacet
  facet normal -8.12739e-17 0.5 -0.866025
    outer loop
      vertex 7.6 -7.59 -5.81699
      vertex 8.30711 -8.30711 -6.23101
      vertex 7.6 -7.6 -5.82276
    endloop
  endfacet
  facet normal -0.5 1.92296e-16 0.866025
    outer loop
      vertex 8.30711 -8.30711 6.23101
      vertex 7.6 -7.6 5.82276
      vertex 7.59 -7.6 5.81699
    endloop
  endfacet
  facet normal -0.5 1.92296e-16 0.866025
    outer loop
      vertex 7.59 -8.30711 5.81699
      vertex 8.30711 -8.30711 6.23101
      vertex 7.59 -7.6 5.81699
    endloop
  endfacet
  facet normal 1 0 0
    outer loop
      vertex 7.59 -7.6 5.81699
      vertex 7.59 -7.6 5.82276
      vertex 7.59 -8.30711 6.23101
    endloop
  endfacet
  facet normal 1 0 0
    outer loop
      vertex 7.59 -8.30711 5.81699
      vertex 7.59 -7.6 5.81699
      vertex 7.59 -8.30711 6.23101
    endloop
  endfacet
  facet normal -1 2.54072e-33 -1.22465e-16
    outer loop
      vertex -7.59 -8.30711 -6.23101
      vertex -7.59 -8.30711 -5.81699
      vertex -7.59 -7.6 -5.82276
    endloop
  endfacet
  facet normal -1 2.54072e-33 -1.22465e-16
    outer loop
      vertex -7.59 -7.6 -5.82276
      vertex -7.59 -8.30711 -5.81699
      vertex -7.59 -7.6 -5.81699
    endloop
  endfacet
  facet normal -2.71926e-32 1 2.22045e-16
    outer loop
      vertex -7.59 -8.30711 -5.81699
      vertex -7.59 -8.30711 -6.23101
      vertex -8.30711 -8.30711 -6.23101
    endloop
  endfacet
  facet normal 0.5 1.92296e-16 -0.866025
    outer loop
      vertex -7.59 -7.6 -5.81699
      vertex -7.59 -8.30711 -5.81699
      vertex -7.6 -7.6 -5.82276
    endloop
  endfacet
  facet normal 0.5 1.92296e-16 -0.866025
    outer loop
      vertex -7.6 -7.6 -5.82276
      vertex -7.59 -8.30711 -5.81699
      vertex -8.30711 -8.30711 -6.23101
    endloop
  endfacet
  facet normal 3.03319e-16 0.5 0.866025
    outer loop
      vertex -7.6 -7.6 5.82276
      vertex -7.6 -7.59 5.81699
      vertex -8.30711 -7.59 5.81699
    endloop
  endfacet
  facet normal 3.03319e-16 0.5 0.866025
    outer loop
      vertex -8.30711 -8.30711 6.23101
      vertex -7.6 -7.6 5.82276
      vertex -8.30711 -7.59 5.81699
    endloop
  endfacet
  facet normal -2.22045e-16 -1 4.93038e-32
    outer loop
      vertex -7.6 -7.59 5.81699
      vertex -7.6 -7.59 5.82276
      vertex -8.30711 -7.59 6.23101
    endloop
  endfacet
  facet normal -2.22045e-16 -1 4.93038e-32
    outer loop
      vertex -8.30711 -7.59 5.81699
      vertex -7.6 -7.59 5.81699
      vertex -8.30711 -7.59 6.23101
    endloop
  endfacet
  facet normal 1 -2.22045e-16 -2.22045e-16
    outer loop
      vertex -8.30711 -7.59 5.81699
      vertex -8.30711 -7.59 6.23101
      vertex -8.30711 -8.30711 6.23101
    endloop
  endfacet
  facet normal 0 1 -2.22045e-16
    outer loop
      vertex 7.59 -8.30711 6.23101
      vertex 8.30711 -8.30711 6.23101
      vertex 7.59 -8.30711 5.81699
    endloop
  endfacet
  facet normal -1 2.22045e-16 -2.22045e-16
    outer loop
      vertex 8.30711 8.30711 6.23101
      vertex 8.30711 7.59 5.81699
      vertex 8.30711 7.59 6.23101
    endloop
  endfacet
  facet normal 2.71926e-32 -1 -2.22045e-16
    outer loop
      vertex -7.59 8.30711 5.81699
      vertex -7.59 8.30711 6.23101
      vertex -8.30711 8.30711 6.23101
    endloop
  endfacet
endsolid OpenSCAD_Model
